<?xml version="1.0" encoding="UTF-8"?>
<svg xmlns="http://www.w3.org/2000/svg" xmlns:xlink="http://www.w3.org/1999/xlink" width="500" viewBox="0 0 500 500" height="500" preserveAspectRatio="xMidYMid meet" version="1.2">
  <defs>
    <g></g>
    <clipPath id="3faa96b71d">
      <path d="M 0 83.964844 L 172.929688 83.964844 L 172.929688 283.421875 L 0 283.421875 Z M 0 83.964844 " clip-rule="nonzero"></path>
    </clipPath>
  </defs>
  <g clip-path="url(#3faa96b71d)">
    <path fill="#545454" d="M 142.910156 283.203125 L 29.695312 283.203125 C 28.726562 283.199219 27.761719 283.152344 26.796875 283.054688 C 25.832031 282.960938 24.875 282.816406 23.925781 282.628906 C 22.976562 282.4375 22.039062 282.203125 21.109375 281.917969 C 20.183594 281.636719 19.273438 281.3125 18.378906 280.941406 C 17.484375 280.570312 16.609375 280.15625 15.753906 279.699219 C 14.902344 279.242188 14.070312 278.742188 13.265625 278.203125 C 12.460938 277.664062 11.683594 277.089844 10.933594 276.472656 C 10.1875 275.859375 9.46875 275.210938 8.785156 274.523438 C 8.097656 273.839844 7.449219 273.121094 6.835938 272.375 C 6.21875 271.625 5.644531 270.847656 5.105469 270.042969 C 4.566406 269.238281 4.066406 268.40625 3.609375 267.554688 C 3.152344 266.699219 2.738281 265.824219 2.367188 264.929688 C 1.996094 264.035156 1.671875 263.125 1.390625 262.199219 C 1.105469 261.269531 0.871094 260.332031 0.679688 259.382812 C 0.492188 258.433594 0.347656 257.476562 0.253906 256.511719 C 0.15625 255.546875 0.109375 254.582031 0.105469 253.613281 L 0.105469 174.25 C 0.101562 172.378906 0.277344 170.527344 0.632812 168.691406 C 0.988281 166.855469 1.515625 165.070312 2.21875 163.339844 C 2.917969 161.605469 3.777344 159.957031 4.800781 158.390625 C 5.820312 156.824219 6.980469 155.371094 8.285156 154.027344 L 68.847656 91.394531 C 69.410156 90.808594 70.003906 90.253906 70.621094 89.726562 C 71.242188 89.199219 71.886719 88.707031 72.554688 88.246094 C 73.226562 87.785156 73.914062 87.355469 74.628906 86.964844 C 75.339844 86.574219 76.070312 86.21875 76.816406 85.898438 C 77.566406 85.582031 78.328125 85.300781 79.105469 85.058594 C 79.878906 84.816406 80.667969 84.617188 81.464844 84.453125 C 82.261719 84.289062 83.0625 84.167969 83.871094 84.085938 C 84.679688 84.003906 85.492188 83.964844 86.304688 83.964844 C 87.117188 83.964844 87.929688 84.003906 88.738281 84.085938 C 89.546875 84.167969 90.347656 84.289062 91.144531 84.453125 C 91.941406 84.617188 92.726562 84.816406 93.503906 85.058594 C 94.28125 85.300781 95.042969 85.582031 95.789062 85.898438 C 96.539062 86.21875 97.269531 86.574219 97.980469 86.964844 C 98.691406 87.355469 99.382812 87.785156 100.050781 88.246094 C 100.722656 88.707031 101.367188 89.199219 101.984375 89.726562 C 102.605469 90.253906 103.195312 90.808594 103.757812 91.394531 L 169.96875 159.863281 C 170.382812 160.289062 170.753906 160.75 171.074219 161.246094 C 171.398438 161.746094 171.671875 162.269531 171.890625 162.820312 C 172.109375 163.371094 172.273438 163.9375 172.382812 164.519531 C 172.488281 165.105469 172.539062 165.691406 172.53125 166.285156 C 172.519531 166.878906 172.453125 167.464844 172.332031 168.042969 C 172.207031 168.625 172.027344 169.1875 171.789062 169.730469 C 171.554688 170.273438 171.269531 170.792969 170.929688 171.277344 C 170.59375 171.765625 170.210938 172.214844 169.785156 172.628906 C 169.359375 173.042969 168.894531 173.40625 168.398438 173.730469 C 167.898438 174.050781 167.375 174.320312 166.820312 174.535156 C 166.269531 174.753906 165.703125 174.914062 165.117188 175.019531 C 164.535156 175.125 163.945312 175.171875 163.351562 175.160156 C 162.761719 175.148438 162.175781 175.078125 161.59375 174.953125 C 161.015625 174.824219 160.453125 174.640625 159.910156 174.402344 C 159.367188 174.164062 158.851562 173.875 158.367188 173.539062 C 157.878906 173.199219 157.433594 172.8125 157.023438 172.386719 L 90.808594 103.941406 C 90.519531 103.632812 90.203125 103.359375 89.855469 103.117188 C 89.511719 102.875 89.144531 102.667969 88.757812 102.5 C 88.371094 102.332031 87.96875 102.207031 87.558594 102.121094 C 87.144531 102.035156 86.726562 101.992188 86.304688 101.992188 C 85.882812 101.992188 85.464844 102.035156 85.050781 102.121094 C 84.636719 102.207031 84.238281 102.332031 83.851562 102.5 C 83.464844 102.667969 83.097656 102.875 82.753906 103.117188 C 82.40625 103.359375 82.089844 103.632812 81.800781 103.941406 L 21.230469 166.550781 C 20.234375 167.585938 19.464844 168.769531 18.933594 170.105469 C 18.398438 171.441406 18.136719 172.832031 18.144531 174.269531 L 18.144531 253.613281 C 18.144531 254.371094 18.21875 255.125 18.367188 255.871094 C 18.519531 256.613281 18.738281 257.339844 19.027344 258.039062 C 19.320312 258.742188 19.675781 259.410156 20.101562 260.039062 C 20.523438 260.671875 21.003906 261.257812 21.539062 261.792969 C 22.078125 262.332031 22.660156 262.8125 23.292969 263.234375 C 23.925781 263.65625 24.59375 264.011719 25.292969 264.304688 C 25.996094 264.597656 26.71875 264.816406 27.464844 264.964844 C 28.210938 265.113281 28.960938 265.1875 29.722656 265.191406 L 142.9375 265.191406 C 143.527344 265.191406 144.113281 265.25 144.695312 265.363281 C 145.273438 265.480469 145.835938 265.648438 146.382812 265.875 C 146.929688 266.101562 147.449219 266.378906 147.941406 266.707031 C 148.433594 267.035156 148.886719 267.410156 149.304688 267.828125 C 149.722656 268.246094 150.097656 268.703125 150.425781 269.191406 C 150.753906 269.683594 151.03125 270.203125 151.257812 270.75 C 151.484375 271.296875 151.65625 271.859375 151.769531 272.4375 C 151.886719 273.019531 151.941406 273.605469 151.941406 274.195312 C 151.941406 274.789062 151.886719 275.375 151.769531 275.953125 C 151.65625 276.53125 151.484375 277.097656 151.257812 277.640625 C 151.03125 278.1875 150.753906 278.707031 150.425781 279.199219 C 150.097656 279.691406 149.722656 280.144531 149.304688 280.5625 C 148.886719 280.980469 148.433594 281.355469 147.941406 281.683594 C 147.449219 282.011719 146.929688 282.289062 146.382812 282.515625 C 145.835938 282.742188 145.273438 282.914062 144.695312 283.027344 C 144.113281 283.144531 143.527344 283.203125 142.9375 283.203125 Z M 142.910156 283.203125 " fill-opacity="1" fill-rule="nonzero"></path>
  </g>
  <g fill="#545454" fill-opacity="1">
    <g transform="translate(17.49011, 260.822946)">
      <g>
        <path d="M 27.46875 -15.5625 L 53.875 -15.5625 L 53.875 0 L 7.3125 0 L 7.3125 -82.765625 L 27.46875 -82.765625 Z M 27.46875 -15.5625 "></path>
      </g>
    </g>
  </g>
  <g fill="#545454" fill-opacity="1">
    <g transform="translate(73.723626, 260.822946)">
      <g>
        <path d="M 27.109375 -82.765625 L 27.109375 -33.25 C 27.109375 -28.289062 28.328125 -24.472656 30.765625 -21.796875 C 33.203125 -19.128906 36.78125 -17.796875 41.5 -17.796875 C 46.21875 -17.796875 49.832031 -19.128906 52.34375 -21.796875 C 54.851562 -24.472656 56.109375 -28.289062 56.109375 -33.25 L 56.109375 -82.765625 L 76.28125 -82.765625 L 76.28125 -33.359375 C 76.28125 -25.972656 74.707031 -19.722656 71.5625 -14.609375 C 68.414062 -9.503906 64.1875 -5.65625 58.875 -3.0625 C 53.570312 -0.46875 47.660156 0.828125 41.140625 0.828125 C 34.617188 0.828125 28.785156 -0.445312 23.640625 -3 C 18.492188 -5.5625 14.425781 -9.414062 11.4375 -14.5625 C 8.445312 -19.707031 6.953125 -25.972656 6.953125 -33.359375 L 6.953125 -82.765625 Z M 27.109375 -82.765625 "></path>
      </g>
    </g>
  </g>
  <g fill="#545454" fill-opacity="1">
    <g transform="translate(156.836075, 260.822946)">
      <g>
        <path d="M 101.03125 -82.765625 L 101.03125 0 L 80.875 0 L 80.875 -49.625 L 62.359375 0 L 46.09375 0 L 27.46875 -49.75 L 27.46875 0 L 7.3125 0 L 7.3125 -82.765625 L 31.125 -82.765625 L 54.34375 -25.46875 L 77.34375 -82.765625 Z M 101.03125 -82.765625 "></path>
      </g>
    </g>
  </g>
  <g fill="#545454" fill-opacity="1">
    <g transform="translate(265.059091, 260.822946)">
      <g>
        <path d="M 27.46875 -66.609375 L 27.46875 -49.875 L 54.46875 -49.875 L 54.46875 -34.3125 L 27.46875 -34.3125 L 27.46875 -16.15625 L 58 -16.15625 L 58 0 L 7.3125 0 L 7.3125 -82.765625 L 58 -82.765625 L 58 -66.609375 Z M 27.46875 -66.609375 "></path>
      </g>
    </g>
  </g>
  <g fill="#545454" fill-opacity="1">
    <g transform="translate(155.799531, 283.109391)">
      <g>
        <path d="M 0.8125 -8.03125 C 0.8125 -9.707031 1.148438 -11.171875 1.828125 -12.421875 C 2.515625 -13.671875 3.46875 -14.628906 4.6875 -15.296875 C 5.90625 -15.972656 7.300781 -16.3125 8.875 -16.3125 C 10.894531 -16.3125 12.582031 -15.78125 13.9375 -14.71875 C 15.289062 -13.664062 16.175781 -12.175781 16.59375 -10.25 L 11.359375 -10.25 C 10.910156 -11.476562 10.050781 -12.09375 8.78125 -12.09375 C 7.882812 -12.09375 7.164062 -11.742188 6.625 -11.046875 C 6.082031 -10.347656 5.8125 -9.34375 5.8125 -8.03125 C 5.8125 -6.726562 6.082031 -5.722656 6.625 -5.015625 C 7.164062 -4.316406 7.882812 -3.96875 8.78125 -3.96875 C 10.050781 -3.96875 10.910156 -4.582031 11.359375 -5.8125 L 16.59375 -5.8125 C 16.175781 -3.9375 15.285156 -2.457031 13.921875 -1.375 C 12.554688 -0.300781 10.875 0.234375 8.875 0.234375 C 7.300781 0.234375 5.90625 -0.0976562 4.6875 -0.765625 C 3.46875 -1.441406 2.515625 -2.40625 1.828125 -3.65625 C 1.148438 -4.90625 0.8125 -6.363281 0.8125 -8.03125 Z M 0.8125 -8.03125 "></path>
      </g>
    </g>
  </g>
  <g fill="#545454" fill-opacity="1">
    <g transform="translate(173.233382, 283.109391)">
      <g></g>
    </g>
  </g>
  <g fill="#545454" fill-opacity="1">
    <g transform="translate(179.342437, 283.109391)">
      <g>
        <path d="M 0.8125 -8.0625 C 0.8125 -9.71875 1.117188 -11.171875 1.734375 -12.421875 C 2.359375 -13.671875 3.207031 -14.628906 4.28125 -15.296875 C 5.363281 -15.972656 6.566406 -16.3125 7.890625 -16.3125 C 9.023438 -16.3125 10.019531 -16.078125 10.875 -15.609375 C 11.726562 -15.148438 12.382812 -14.546875 12.84375 -13.796875 L 12.84375 -16.078125 L 17.78125 -16.078125 L 17.78125 0 L 12.84375 0 L 12.84375 -2.28125 C 12.363281 -1.53125 11.695312 -0.921875 10.84375 -0.453125 C 9.988281 0.00390625 8.992188 0.234375 7.859375 0.234375 C 6.554688 0.234375 5.363281 -0.101562 4.28125 -0.78125 C 3.207031 -1.46875 2.359375 -2.441406 1.734375 -3.703125 C 1.117188 -4.960938 0.8125 -6.414062 0.8125 -8.0625 Z M 12.84375 -8.03125 C 12.84375 -9.257812 12.5 -10.226562 11.8125 -10.9375 C 11.132812 -11.65625 10.304688 -12.015625 9.328125 -12.015625 C 8.347656 -12.015625 7.515625 -11.660156 6.828125 -10.953125 C 6.148438 -10.253906 5.8125 -9.289062 5.8125 -8.0625 C 5.8125 -6.832031 6.148438 -5.859375 6.828125 -5.140625 C 7.515625 -4.421875 8.347656 -4.0625 9.328125 -4.0625 C 10.304688 -4.0625 11.132812 -4.414062 11.8125 -5.125 C 12.5 -5.832031 12.84375 -6.800781 12.84375 -8.03125 Z M 12.84375 -8.03125 "></path>
      </g>
    </g>
  </g>
  <g fill="#545454" fill-opacity="1">
    <g transform="translate(198.908701, 283.109391)">
      <g></g>
    </g>
  </g>
  <g fill="#545454" fill-opacity="1">
    <g transform="translate(205.017756, 283.109391)">
      <g>
        <path d="M 8.328125 0.234375 C 6.921875 0.234375 5.671875 -0.00390625 4.578125 -0.484375 C 3.484375 -0.960938 2.617188 -1.617188 1.984375 -2.453125 C 1.347656 -3.296875 0.992188 -4.234375 0.921875 -5.265625 L 5.796875 -5.265625 C 5.847656 -4.710938 6.101562 -4.265625 6.5625 -3.921875 C 7.03125 -3.578125 7.597656 -3.40625 8.265625 -3.40625 C 8.878906 -3.40625 9.351562 -3.523438 9.6875 -3.765625 C 10.03125 -4.003906 10.203125 -4.316406 10.203125 -4.703125 C 10.203125 -5.160156 9.960938 -5.5 9.484375 -5.71875 C 9.003906 -5.9375 8.222656 -6.179688 7.140625 -6.453125 C 5.992188 -6.722656 5.035156 -7.003906 4.265625 -7.296875 C 3.492188 -7.597656 2.828125 -8.070312 2.265625 -8.71875 C 1.710938 -9.363281 1.4375 -10.234375 1.4375 -11.328125 C 1.4375 -12.242188 1.691406 -13.082031 2.203125 -13.84375 C 2.710938 -14.601562 3.460938 -15.203125 4.453125 -15.640625 C 5.441406 -16.085938 6.617188 -16.3125 7.984375 -16.3125 C 9.992188 -16.3125 11.582031 -15.8125 12.75 -14.8125 C 13.914062 -13.8125 14.582031 -12.484375 14.75 -10.828125 L 10.203125 -10.828125 C 10.117188 -11.390625 9.867188 -11.832031 9.453125 -12.15625 C 9.046875 -12.488281 8.507812 -12.65625 7.84375 -12.65625 C 7.257812 -12.65625 6.8125 -12.539062 6.5 -12.3125 C 6.195312 -12.09375 6.046875 -11.789062 6.046875 -11.40625 C 6.046875 -10.945312 6.289062 -10.601562 6.78125 -10.375 C 7.269531 -10.144531 8.035156 -9.914062 9.078125 -9.6875 C 10.265625 -9.375 11.234375 -9.066406 11.984375 -8.765625 C 12.734375 -8.472656 13.390625 -7.992188 13.953125 -7.328125 C 14.523438 -6.671875 14.820312 -5.785156 14.84375 -4.671875 C 14.84375 -3.722656 14.578125 -2.878906 14.046875 -2.140625 C 13.515625 -1.398438 12.753906 -0.816406 11.765625 -0.390625 C 10.773438 0.0234375 9.628906 0.234375 8.328125 0.234375 Z M 8.328125 0.234375 "></path>
      </g>
    </g>
  </g>
  <g fill="#545454" fill-opacity="1">
    <g transform="translate(221.097243, 283.109391)">
      <g></g>
    </g>
  </g>
  <g fill="#545454" fill-opacity="1">
    <g transform="translate(227.206298, 283.109391)">
      <g>
        <path d="M 0.8125 -8.0625 C 0.8125 -9.71875 1.117188 -11.171875 1.734375 -12.421875 C 2.359375 -13.671875 3.207031 -14.628906 4.28125 -15.296875 C 5.363281 -15.972656 6.566406 -16.3125 7.890625 -16.3125 C 9.023438 -16.3125 10.019531 -16.078125 10.875 -15.609375 C 11.726562 -15.148438 12.382812 -14.546875 12.84375 -13.796875 L 12.84375 -16.078125 L 17.78125 -16.078125 L 17.78125 0 L 12.84375 0 L 12.84375 -2.28125 C 12.363281 -1.53125 11.695312 -0.921875 10.84375 -0.453125 C 9.988281 0.00390625 8.992188 0.234375 7.859375 0.234375 C 6.554688 0.234375 5.363281 -0.101562 4.28125 -0.78125 C 3.207031 -1.46875 2.359375 -2.441406 1.734375 -3.703125 C 1.117188 -4.960938 0.8125 -6.414062 0.8125 -8.0625 Z M 12.84375 -8.03125 C 12.84375 -9.257812 12.5 -10.226562 11.8125 -10.9375 C 11.132812 -11.65625 10.304688 -12.015625 9.328125 -12.015625 C 8.347656 -12.015625 7.515625 -11.660156 6.828125 -10.953125 C 6.148438 -10.253906 5.8125 -9.289062 5.8125 -8.0625 C 5.8125 -6.832031 6.148438 -5.859375 6.828125 -5.140625 C 7.515625 -4.421875 8.347656 -4.0625 9.328125 -4.0625 C 10.304688 -4.0625 11.132812 -4.414062 11.8125 -5.125 C 12.5 -5.832031 12.84375 -6.800781 12.84375 -8.03125 Z M 12.84375 -8.03125 "></path>
      </g>
    </g>
  </g>
  <g fill="#545454" fill-opacity="1">
    <g transform="translate(246.777389, 283.109391)">
      <g></g>
    </g>
  </g>
  <g fill="#545454" fill-opacity="1">
    <g transform="translate(252.886444, 283.109391)">
      <g></g>
    </g>
  </g>
  <g fill="#545454" fill-opacity="1">
    <g transform="translate(258.995498, 283.109391)">
      <g></g>
    </g>
  </g>
  <g fill="#545454" fill-opacity="1">
    <g transform="translate(265.108061, 283.109391)">
      <g>
        <path d="M 0.8125 -8.0625 C 0.8125 -9.71875 1.117188 -11.171875 1.734375 -12.421875 C 2.359375 -13.671875 3.207031 -14.628906 4.28125 -15.296875 C 5.363281 -15.972656 6.566406 -16.3125 7.890625 -16.3125 C 8.953125 -16.3125 9.914062 -16.085938 10.78125 -15.640625 C 11.65625 -15.203125 12.34375 -14.609375 12.84375 -13.859375 L 12.84375 -21.328125 L 17.78125 -21.328125 L 17.78125 0 L 12.84375 0 L 12.84375 -2.3125 C 12.382812 -1.539062 11.726562 -0.921875 10.875 -0.453125 C 10.019531 0.00390625 9.023438 0.234375 7.890625 0.234375 C 6.566406 0.234375 5.363281 -0.101562 4.28125 -0.78125 C 3.207031 -1.46875 2.359375 -2.441406 1.734375 -3.703125 C 1.117188 -4.960938 0.8125 -6.414062 0.8125 -8.0625 Z M 12.84375 -8.03125 C 12.84375 -9.257812 12.5 -10.226562 11.8125 -10.9375 C 11.132812 -11.65625 10.304688 -12.015625 9.328125 -12.015625 C 8.347656 -12.015625 7.515625 -11.660156 6.828125 -10.953125 C 6.148438 -10.253906 5.8125 -9.289062 5.8125 -8.0625 C 5.8125 -6.832031 6.148438 -5.859375 6.828125 -5.140625 C 7.515625 -4.421875 8.347656 -4.0625 9.328125 -4.0625 C 10.304688 -4.0625 11.132812 -4.414062 11.8125 -5.125 C 12.5 -5.832031 12.84375 -6.800781 12.84375 -8.03125 Z M 12.84375 -8.03125 "></path>
      </g>
    </g>
  </g>
  <g fill="#545454" fill-opacity="1">
    <g transform="translate(284.674325, 283.109391)">
      <g></g>
    </g>
  </g>
  <g fill="#545454" fill-opacity="1">
    <g transform="translate(290.78338, 283.109391)">
      <g>
        <path d="M 16.9375 -8.296875 C 16.9375 -7.835938 16.910156 -7.359375 16.859375 -6.859375 L 5.703125 -6.859375 C 5.773438 -5.859375 6.09375 -5.09375 6.65625 -4.5625 C 7.226562 -4.039062 7.929688 -3.78125 8.765625 -3.78125 C 9.992188 -3.78125 10.847656 -4.296875 11.328125 -5.328125 L 16.5625 -5.328125 C 16.289062 -4.273438 15.804688 -3.320312 15.109375 -2.46875 C 14.410156 -1.625 13.53125 -0.960938 12.46875 -0.484375 C 11.414062 -0.00390625 10.238281 0.234375 8.9375 0.234375 C 7.351562 0.234375 5.945312 -0.0976562 4.71875 -0.765625 C 3.488281 -1.441406 2.53125 -2.40625 1.84375 -3.65625 C 1.15625 -4.90625 0.8125 -6.363281 0.8125 -8.03125 C 0.8125 -9.707031 1.148438 -11.171875 1.828125 -12.421875 C 2.515625 -13.671875 3.472656 -14.628906 4.703125 -15.296875 C 5.929688 -15.972656 7.34375 -16.3125 8.9375 -16.3125 C 10.488281 -16.3125 11.867188 -15.984375 13.078125 -15.328125 C 14.285156 -14.671875 15.226562 -13.738281 15.90625 -12.53125 C 16.59375 -11.320312 16.9375 -9.910156 16.9375 -8.296875 Z M 11.90625 -9.59375 C 11.90625 -10.4375 11.613281 -11.109375 11.03125 -11.609375 C 10.457031 -12.109375 9.738281 -12.359375 8.875 -12.359375 C 8.050781 -12.359375 7.351562 -12.117188 6.78125 -11.640625 C 6.21875 -11.160156 5.867188 -10.476562 5.734375 -9.59375 Z M 11.90625 -9.59375 "></path>
      </g>
    </g>
  </g>
  <g fill="#545454" fill-opacity="1">
    <g transform="translate(308.534217, 283.109391)">
      <g></g>
    </g>
  </g>
  <g fill="#545454" fill-opacity="1">
    <g transform="translate(314.643271, 283.109391)">
      <g>
        <path d="M 0.8125 -8.03125 C 0.8125 -9.707031 1.148438 -11.171875 1.828125 -12.421875 C 2.515625 -13.671875 3.46875 -14.628906 4.6875 -15.296875 C 5.90625 -15.972656 7.300781 -16.3125 8.875 -16.3125 C 10.894531 -16.3125 12.582031 -15.78125 13.9375 -14.71875 C 15.289062 -13.664062 16.175781 -12.175781 16.59375 -10.25 L 11.359375 -10.25 C 10.910156 -11.476562 10.050781 -12.09375 8.78125 -12.09375 C 7.882812 -12.09375 7.164062 -11.742188 6.625 -11.046875 C 6.082031 -10.347656 5.8125 -9.34375 5.8125 -8.03125 C 5.8125 -6.726562 6.082031 -5.722656 6.625 -5.015625 C 7.164062 -4.316406 7.882812 -3.96875 8.78125 -3.96875 C 10.050781 -3.96875 10.910156 -4.582031 11.359375 -5.8125 L 16.59375 -5.8125 C 16.175781 -3.9375 15.285156 -2.457031 13.921875 -1.375 C 12.554688 -0.300781 10.875 0.234375 8.875 0.234375 C 7.300781 0.234375 5.90625 -0.0976562 4.6875 -0.765625 C 3.46875 -1.441406 2.515625 -2.40625 1.828125 -3.65625 C 1.148438 -4.90625 0.8125 -6.363281 0.8125 -8.03125 Z M 0.8125 -8.03125 "></path>
      </g>
    </g>
  </g>
  <g fill="#545454" fill-opacity="1">
    <g transform="translate(332.077122, 283.109391)">
      <g></g>
    </g>
  </g>
  <g fill="#545454" fill-opacity="1">
    <g transform="translate(338.186177, 283.109391)">
      <g>
        <path d="M 9.109375 0.234375 C 7.523438 0.234375 6.101562 -0.0976562 4.84375 -0.765625 C 3.59375 -1.441406 2.609375 -2.40625 1.890625 -3.65625 C 1.171875 -4.90625 0.8125 -6.363281 0.8125 -8.03125 C 0.8125 -9.6875 1.175781 -11.144531 1.90625 -12.40625 C 2.632812 -13.664062 3.628906 -14.628906 4.890625 -15.296875 C 6.160156 -15.972656 7.582031 -16.3125 9.15625 -16.3125 C 10.738281 -16.3125 12.160156 -15.972656 13.421875 -15.296875 C 14.691406 -14.628906 15.691406 -13.664062 16.421875 -12.40625 C 17.148438 -11.144531 17.515625 -9.6875 17.515625 -8.03125 C 17.515625 -6.382812 17.144531 -4.929688 16.40625 -3.671875 C 15.664062 -2.410156 14.65625 -1.441406 13.375 -0.765625 C 12.101562 -0.0976562 10.679688 0.234375 9.109375 0.234375 Z M 9.109375 -4.03125 C 10.046875 -4.03125 10.84375 -4.375 11.5 -5.0625 C 12.164062 -5.757812 12.5 -6.75 12.5 -8.03125 C 12.5 -9.320312 12.175781 -10.3125 11.53125 -11 C 10.894531 -11.695312 10.101562 -12.046875 9.15625 -12.046875 C 8.195312 -12.046875 7.398438 -11.703125 6.765625 -11.015625 C 6.128906 -10.335938 5.8125 -9.34375 5.8125 -8.03125 C 5.8125 -6.75 6.125 -5.757812 6.75 -5.0625 C 7.375 -4.375 8.160156 -4.03125 9.109375 -4.03125 Z M 9.109375 -4.03125 "></path>
      </g>
    </g>
  </g>
  <g fill="#545454" fill-opacity="1">
    <g transform="translate(356.542156, 283.109391)">
      <g></g>
    </g>
  </g>
  <g fill="#545454" fill-opacity="1">
    <g transform="translate(362.651211, 283.109391)">
      <g>
        <path d="M 6.71875 -13.390625 C 7.289062 -14.273438 8.007812 -14.972656 8.875 -15.484375 C 9.738281 -15.992188 10.695312 -16.25 11.75 -16.25 L 11.75 -11.03125 L 10.40625 -11.03125 C 9.175781 -11.03125 8.253906 -10.765625 7.640625 -10.234375 C 7.023438 -9.710938 6.71875 -8.789062 6.71875 -7.46875 L 6.71875 0 L 1.78125 0 L 1.78125 -16.078125 L 6.71875 -16.078125 Z M 6.71875 -13.390625 "></path>
      </g>
    </g>
  </g>
  <title>Title</title>
</svg>
